HIERARCHY
ROOT Hips
{
	OFFSET 0.000000 0.000000 0.000000
	CHANNELS 6 Xposition Yposition Zposition Xrotation Yrotation Zrotation
	JOINT LeftUpLeg_virtual
	{
		OFFSET 0.000000 0.000000 0.000000
		CHANNELS 3 Xrotation Yrotation Zrotation
		JOINT LeftUpLeg
		{
			OFFSET 10.205400 -3.823500 0.155100
			CHANNELS 3 Xrotation Yrotation Zrotation
			JOINT LeftLeg
			{
				OFFSET 0.708757 -12.982077 0.567790
				CHANNELS 3 Xrotation Yrotation Zrotation
				JOINT LeftFoot
				{
					OFFSET -0.708756 -10.717838 -2.184338
					CHANNELS 3 Xrotation Yrotation Zrotation
					JOINT LeftToeBase
					{
						OFFSET 0.108149 -7.191104 7.560241
						CHANNELS 3 Xrotation Yrotation Zrotation
						JOINT LeftToe_End
						{
							OFFSET 0.070230 0.081724 4.490308
							CHANNELS 3 Xrotation Yrotation Zrotation
							End Site
							{
								OFFSET 0 0 0
							}
						}
					}
				}
			}
		}
	}
	JOINT RightUpLeg_virtual
	{
		OFFSET 0.000000 0.000000 0.000000
		CHANNELS 3 Xrotation Yrotation Zrotation
		JOINT RightUpLeg
		{
			OFFSET -10.205400 -3.823500 0.005500
			CHANNELS 3 Xrotation Yrotation Zrotation
			JOINT RightLeg
			{
				OFFSET -0.708756 -12.982134 0.610632
				CHANNELS 3 Xrotation Yrotation Zrotation
				JOINT RightFoot
				{
					OFFSET 0.708754 -10.717769 -1.945823
					CHANNELS 3 Xrotation Yrotation Zrotation
					JOINT RightToeBase
					{
						OFFSET -0.108140 -7.191069 7.372968
						CHANNELS 3 Xrotation Yrotation Zrotation
						JOINT RightToe_End
						{
							OFFSET -0.070227 0.081735 4.479403
							CHANNELS 3 Xrotation Yrotation Zrotation
							End Site
							{
								OFFSET 0 0 0
							}
						}
					}
				}
			}
		}
	}
	JOINT Spine_virtual
	{
		OFFSET 0.000000 0.000000 0.000000
		CHANNELS 3 Xrotation Yrotation Zrotation
		JOINT Spine
		{
			OFFSET 0.000000 6.876099 0.125700
			CHANNELS 3 Xrotation Yrotation Zrotation
			JOINT Spine1
			{
				OFFSET 0.000000 5.730043 0.104720
				CHANNELS 3 Xrotation Yrotation Zrotation
				JOINT Spine1_split
				{
					OFFSET 0.000000 5.730043 0.104720
					CHANNELS 3 Xrotation Yrotation Zrotation
					JOINT Spine2
					{
						OFFSET 0.000000 5.730043 0.104720
						CHANNELS 3 Xrotation Yrotation Zrotation
						JOINT Neck_virtual
						{
							OFFSET 0.000000 0.000000 0.000000
							CHANNELS 3 Xrotation Yrotation Zrotation
							JOINT Neck
							{
								OFFSET 0.000000 10.314075 0.188496
								CHANNELS 3 Xrotation Yrotation Zrotation
								JOINT Head
								{
									OFFSET 0.000000 7.643700 -2.377400
									CHANNELS 3 Xrotation Yrotation Zrotation
									JOINT HeadTop_End
									{
										OFFSET 0.000000 43.788605 -13.619600
										CHANNELS 3 Xrotation Yrotation Zrotation
										End Site
										{
											OFFSET 0 0 0
										}
									}
								}
							}
						}
						JOINT LeftShoulder_virtual
						{
							OFFSET 0.000000 0.000000 0.000000
							CHANNELS 3 Xrotation Yrotation Zrotation
							JOINT LeftShoulder
							{
								OFFSET 2.196100 4.412489 0.087492
								CHANNELS 3 Xrotation Yrotation Zrotation
								JOINT LeftShoulder_split
								{
									OFFSET 2.196100 4.412489 0.087492
									CHANNELS 3 Xrotation Yrotation Zrotation
									JOINT LeftArm
									{
										OFFSET 8.771219 -2.981674 -0.026999
										CHANNELS 3 Xrotation Yrotation Zrotation
										JOINT LeftForeArm
										{
											OFFSET 8.512804 0.000000 -0.000000
											CHANNELS 3 Xrotation Yrotation Zrotation
											JOINT LeftHand
											{
												OFFSET 18.484802 0.000000 -0.000000
												CHANNELS 3 Xrotation Yrotation Zrotation
												End Site
												{
													OFFSET 0 0 0
												}
											}
										}
									}
								}
							}
						}
						JOINT RightShoulder_virtual
						{
							OFFSET 0.000000 0.000000 0.000000
							CHANNELS 3 Xrotation Yrotation Zrotation
							JOINT RightShoulder
							{
								OFFSET -2.196100 4.412496 0.070690
								CHANNELS 3 Xrotation Yrotation Zrotation
								JOINT RightShoulder_split
								{
									OFFSET -2.196100 4.412496 0.070690
									CHANNELS 3 Xrotation Yrotation Zrotation
									JOINT RightArm
									{
										OFFSET -8.771282 -2.981682 -0.094208
										CHANNELS 3 Xrotation Yrotation Zrotation
										JOINT RightForeArm
										{
											OFFSET -8.494598 0.000000 0.000000
											CHANNELS 3 Xrotation Yrotation Zrotation
											JOINT RightHand
											{
												OFFSET -18.483803 0.000000 0.000001
												CHANNELS 3 Xrotation Yrotation Zrotation
												End Site
												{
													OFFSET 0 0 0
												}
											}
										}
									}
								}
							}
						}
					}
				}
			}
		}
	}
}
MOTION
Frames: 8
Frame Time: 0.03333333
-9.298371 27.908096 -3.434505 0.000000 0.000000 0.000000 34.096673 5.923562 -3.906317 -65.447030 -21.414948 27.333206 44.848791 2.556138 -2.025296 1.298038 11.651475 -36.753210 -3.384065 0.263014 0.238707 0.000000 0.000000 0.000000 34.508616 5.277239 -4.093423 -58.660492 0.694526 -31.115337 51.663756 3.979777 2.209308 -27.592538 -9.876079 26.117757 -0.661495 0.170785 0.268341 0.000000 0.000000 0.000000 35.102330 4.047388 -4.830605 10.272509 2.179991 0.157275 9.918661 2.006963 1.019666 0.890202 0.004927 0.371554 0.000000 0.000000 0.000000 8.528814 2.178605 0.870375 -1.275464 -1.581986 -1.540035 -30.491184 -11.396796 4.300631 0.000000 0.000000 0.000000 8.676209 2.173609 0.565612 0.067459 -21.772608 -10.048016 1.751350 0.781309 -2.251524 15.657760 -11.723023 -49.203344 -2.768842 -71.785254 -2.751698 0.000000 0.000000 0.000000 8.684805 2.382336 1.142285 3.554845 25.739073 6.707396 0.707970 2.784905 -0.174036 -5.340954 41.460836 18.922365 -0.853728 20.692990 1.750411 0.000000 0.000000 0.000000 
-8.954507 27.507845 -3.374434 0.000000 0.000000 0.000000 36.707294 6.090809 -3.463294 -70.782698 -20.417700 26.165796 47.410071 1.433628 -2.171836 0.110665 10.310964 -36.687302 -3.570633 0.142664 0.539263 0.000000 0.000000 0.000000 37.190561 5.032192 -3.465137 -61.794921 2.220478 -32.849327 52.739862 5.152515 2.398488 -28.737386 -10.197275 26.651260 -1.235063 0.206680 0.221953 0.000000 0.000000 0.000000 37.953073 4.082834 -4.248276 10.499518 2.460096 0.121193 10.275915 2.167908 1.043440 0.844449 -0.004883 0.407955 0.000000 0.000000 0.000000 8.829455 2.346998 0.854424 -1.548264 -1.775719 -1.698381 -32.441008 -12.158179 3.481215 0.000000 0.000000 0.000000 9.038993 2.335495 0.548423 0.081428 -22.418161 -9.690059 1.890445 0.707774 -2.391413 15.392306 -11.411437 -49.020155 -3.639636 -74.129013 -3.663781 0.000000 0.000000 0.000000 8.969686 2.562380 1.196003 3.487059 26.211097 6.927308 0.948608 2.771694 -0.290165 -7.817087 41.476819 15.825002 -1.162444 20.905869 1.875625 0.000000 0.000000 0.000000 
-8.607505 27.085081 -3.264928 0.000000 0.000000 0.000000 39.229745 6.508562 -2.860563 -76.076102 -19.260182 25.000531 49.957424 0.275232 -2.403358 -1.129116 8.862588 -36.049656 -3.522256 0.040275 0.611541 0.000000 0.000000 0.000000 39.731617 5.107693 -2.717662 -64.681898 3.989178 -35.046158 54.341531 6.482511 2.839787 -29.936941 -10.568550 27.281206 -1.803849 0.205480 0.233815 0.000000 0.000000 0.000000 40.708863 4.360015 -3.513696 10.717036 2.683415 0.063560 10.605856 2.322118 1.047497 0.838107 -0.020741 0.404333 0.000000 0.000000 0.000000 9.127147 2.510020 0.826404 -1.769070 -2.012252 -1.843410 -34.155075 -12.991947 2.617308 0.000000 0.000000 0.000000 9.398371 2.493776 0.538634 0.140081 -23.120955 -9.199153 2.155029 0.535503 -2.581341 15.847239 -12.059581 -48.887407 -4.568554 -76.265141 -4.651181 0.000000 0.000000 0.000000 9.258565 2.728478 1.241118 3.377390 26.472350 7.294531 1.170970 2.735229 -0.352153 -11.210838 41.296044 13.350924 -1.462915 21.200723 1.879661 0.000000 0.000000 0.000000 
-8.262962 26.599558 -3.105767 0.000000 0.000000 0.000000 41.602529 7.192920 -2.098187 -81.100696 -18.062789 23.871689 52.439778 -0.877864 -2.718057 -2.452926 7.538820 -34.883934 -3.355577 -0.035137 0.488604 0.000000 0.000000 0.000000 42.056996 5.545528 -1.852297 -67.165601 6.063143 -37.685972 56.480528 7.852731 3.459488 -31.593091 -11.105203 27.653305 -1.946979 0.183027 0.319614 0.000000 0.000000 0.000000 43.269296 4.912695 -2.634077 10.925957 2.864415 -0.043062 10.958164 2.493848 1.046515 0.803445 -0.043438 0.400175 0.000000 0.000000 0.000000 9.491307 2.687408 0.804855 -2.004742 -2.289947 -2.009270 -35.767033 -13.874042 1.670810 0.000000 0.000000 0.000000 9.802317 2.670170 0.552522 0.244196 -23.767880 -8.617727 2.463960 0.385778 -2.741135 16.609972 -13.418889 -48.795165 -5.451214 -77.876164 -5.576815 0.000000 0.000000 0.000000 9.602104 2.896801 1.275934 3.280405 26.599461 7.675579 1.381457 2.648391 -0.329293 -14.821201 40.987760 11.101570 -1.716663 21.857258 1.795412 0.000000 0.000000 0.000000 
-7.954319 26.020582 -2.914972 0.000000 0.000000 0.000000 43.723815 8.163596 -1.213695 -85.673610 -16.947221 22.774576 54.908208 -2.051269 -3.056659 -4.099639 6.513337 -33.365478 -3.166571 -0.097643 0.289717 0.000000 0.000000 0.000000 44.151381 6.369197 -0.895505 -69.086291 8.457685 -40.639424 59.219789 9.170575 4.161636 -33.916701 -11.870126 27.567332 -1.626597 0.161866 0.467188 0.000000 0.000000 0.000000 45.562816 5.726486 -1.660979 11.148089 3.030106 -0.215548 11.384287 2.713077 1.055166 0.713730 -0.090422 0.436576 0.000000 0.000000 0.000000 9.981025 2.905847 0.801423 -2.370260 -2.608350 -2.232524 -37.442913 -14.747780 0.612910 0.000000 0.000000 0.000000 10.301408 2.885743 0.599539 0.397236 -24.241948 -7.989951 2.691025 0.308982 -2.803406 17.267244 -15.111525 -48.732700 -6.320678 -78.817692 -6.448309 0.000000 0.000000 0.000000 10.059771 3.092508 1.310657 3.234176 26.711669 7.935849 1.539905 2.569506 -0.174986 -17.912827 40.693236 8.534687 -1.861090 22.795859 1.687448 0.000000 0.000000 0.000000 
-7.691532 25.342648 -2.704798 0.000000 0.000000 0.000000 45.558786 9.312392 -0.282716 -89.659477 -16.017098 21.715010 57.433381 -3.311106 -3.343629 -6.105335 5.840400 -31.799090 -3.097950 -0.158571 0.158405 0.000000 0.000000 0.000000 45.994108 7.453879 0.082327 -70.387763 11.116860 -43.754789 62.502474 10.468779 4.838772 -36.719370 -12.841667 27.209949 -1.143379 0.149969 0.629613 0.000000 0.000000 0.000000 47.552265 6.774921 -0.682953 11.376645 3.233824 -0.443599 11.928593 3.004775 1.082826 0.689377 -0.169524 0.463957 0.000000 0.000000 0.000000 10.630053 3.187936 0.829523 -2.935284 -2.951194 -2.521044 -39.311034 -15.604527 -0.564572 0.000000 0.000000 0.000000 10.922219 3.159909 0.679134 0.576408 -24.439957 -7.351392 2.717001 0.308922 -2.795226 17.426318 -16.828288 -48.757965 -7.095051 -79.120310 -7.149777 0.000000 0.000000 0.000000 10.660398 3.344409 1.347996 3.242970 26.954148 8.018136 1.527142 2.477989 0.083334 -20.129672 40.402051 5.360968 -1.872210 23.583590 1.604447 0.000000 0.000000 0.000000 
-7.470433 24.580429 -2.476067 0.000000 0.000000 0.000000 47.123442 10.562786 0.572067 -93.083054 -15.344433 20.716971 60.027999 -4.678844 -3.544697 -8.398305 5.539568 -30.558126 -3.209700 -0.210875 0.199816 0.000000 0.000000 0.000000 47.615530 8.665410 0.985946 -71.065215 13.944367 -46.886824 66.127863 11.846858 5.383935 -39.757753 -13.959493 26.923419 -0.729756 0.149142 0.751780 0.000000 0.000000 0.000000 49.221721 7.983324 0.220068 11.593875 3.500099 -0.687507 12.601433 3.360459 1.139155 0.632431 -0.282163 0.557357 0.000000 0.000000 0.000000 11.441089 3.530860 0.897737 -3.719946 -3.309178 -2.849677 -41.454508 -16.415229 -1.818259 0.000000 0.000000 0.000000 11.659153 3.501695 0.786580 0.749409 -24.304400 -6.762474 2.680978 0.327361 -2.720610 17.022810 -18.442563 -48.876325 -7.662996 -78.969752 -7.621979 0.000000 0.000000 0.000000 11.391291 3.659013 1.408321 3.309732 27.396862 7.861071 1.379425 2.471551 0.292455 -21.654734 40.048442 1.668357 -1.798008 23.811867 1.587648 0.000000 0.000000 0.000000 
-7.291888 23.788332 -2.243103 0.000000 0.000000 0.000000 48.440480 11.794716 1.274435 -95.998616 -14.935459 19.840600 62.679458 -6.084360 -3.652850 -10.705055 5.566662 -29.794798 -3.489783 -0.251449 0.414931 0.000000 0.000000 0.000000 49.035800 9.875640 1.715638 -71.145354 16.728253 -49.910576 69.910142 13.285708 5.761069 -42.848126 -15.172987 26.863011 -0.532479 0.148807 0.827597 0.000000 0.000000 0.000000 50.655108 9.282367 0.942623 11.788801 3.830039 -0.904223 13.389575 3.757437 1.226107 0.593135 -0.440045 0.642571 0.000000 0.000000 0.000000 12.369454 3.918197 1.009256 -4.704196 -3.662752 -3.181047 -43.893996 -17.156172 -3.090506 0.000000 0.000000 0.000000 12.490135 3.886598 0.920037 0.906826 -23.887815 -6.225143 2.603786 0.290375 -2.648425 16.199535 -19.901482 -49.144905 -8.199500 -78.756070 -8.072144 0.000000 0.000000 0.000000 12.221000 4.024553 1.504054 3.418855 28.019726 7.494817 1.067446 2.593314 0.420103 -23.067424 39.519929 -2.089503 -1.683112 23.520680 1.645742 0.000000 0.000000 0.000000 
